PathFileType	4	(X/Y/Z)	RBDS023\RBDS023runT35.trc
DataRate	CameraRate	NumFrames	NumMarkers	Units	OrigDataRate	OrigDataStartFrame	OrigNumFrames
150.000000	150.000000	4	33	mm	150.000000	0	4500
Frame#	Time	L.ASIS			L.Heel.Bottom			L.Heel.Lateral			L.Heel.Top			L.Iliac.Crest			L.MT1			L.MT5			L.PSIS			L.Shank.Bottom.Lateral			L.Shank.Bottom.Medial			L.Shank.Top.Lateral			L.Shank.Top.Medial			L.Thigh.Bottom.Lateral			L.Thigh.Bottom.Medial			L.Thigh.Top.Lateral			L.Thigh.Top.Medial			R.ASIS			R.ASY			R.Heel.Bottom			R.Heel.Lateral			R.Heel.Top			R.Iliac.Crest			R.MT1			R.MT5			R.PSIS			R.Shank.Bottom.Lateral			R.Shank.Bottom.Medial			R.Shank.Top.Lateral			R.Shank.Top.Medial			R.Thigh.Bottom.Lateral			R.Thigh.Bottom.Medial			R.Thigh.Top.Lateral			R.Thigh.Top.Medial			
		X1	Y1	Z1	X2	Y2	Z2	X3	Y3	Z3	X4	Y4	Z4	X5	Y5	Z5	X6	Y6	Z6	X7	Y7	Z7	X8	Y8	Z8	X9	Y9	Z9	X10	Y10	Z10	X11	Y11	Z11	X12	Y12	Z12	X13	Y13	Z13	X14	Y14	Z14	X15	Y15	Z15	X16	Y16	Z16	X17	Y17	Z17	X18	Y18	Z18	X19	Y19	Z19	X20	Y20	Z20	X21	Y21	Z21	X22	Y22	Z22	X23	Y23	Z23	X24	Y24	Z24	X25	Y25	Z25	X26	Y26	Z26	X27	Y27	Z27	X28	Y28	Z28	X29	Y29	Z29	X30	Y30	Z30	X31	Y31	Z31	X32	Y32	Z32	X33	Y33	Z33	

1	0	2388.129605345653	1016.591733873828	918.7836867437322	2420.652163047854	22.32107929575508	1010.272297827489	2443.253576317064	42.37312324531709	968.293737017668	2427.605629230121	68.18964215177557	1010.728517814076	2304.898395190745	1089.906299859929	872.0290585621068	2645.253552306261	52.86078488577601	1026.111422982513	2603.226789766353	35.1418940723738	918.5278261289084	2209.759481975856	1047.474185411082	975.3298059850473	2481.7257186008	154.7282352125338	939.2025702333325	2439.030031708207	150.9079464883631	967.3645057061502	2462.821865679664	230.3634156463919	916.1337347982981	2420.216467905852	231.2740830691136	947.7293461761474	2418.804099569884	670.2967319312786	865.4636217198059	2360.453182868542	645.3052394111475	897.0292034701273	2367.157729247892	766.8770928625436	851.724043775387	2311.280659654148	743.4086133587673	882.7365157549592	2392.518990183475	1000.027474895636	1132.557653637135	1755.431913795095	339.6426949475635	1080.901063943691	1734.253373538787	538.2324372990165	1050.995900278705	1744.732327174186	510.8859901062997	1098.178912244824	1778.254950495125	519.9466584771914	1055.269617514258	2338.701001273628	1093.321783882409	1172.208949551617	1703.887855917422	315.0507591023467	1032.065841591678	1698.716444566894	354.0948482288968	1141.154729737774	2215.484228002034	1048.676610057919	1085.581528965012	1860.371132154897	464.2883398775318	1121.751143960337	1855.167931827047	507.9955707287108	1087.351884610284	1937.740723934196	485.8056407981787	1135.021776501342	1931.538491474486	527.8365088392698	1101.999833788166	2221.19200621007	606.0851788008075	1158.071221973287	2175.26179665199	617.0740892764009	1101.472414710976	2224.04025202608	714.4227501844038	1173.176841915187	2180.836562299837	724.9446845521026	1119.669567161068	
2	0.006666666666666667	2385.087431297179	1010.508580560633	919.5603670444965	2399.353932370353	23.93727206864854	1011.032942848088	2422.514558435999	44.45173664188319	969.5819038873345	2407.833083131561	69.68633600802096	1012.62309430586	2302.901295574569	1082.69315410863	872.2415687361806	2625.182068735687	48.93492050495054	1028.205372827697	2582.485382635627	35.46140556178342	918.9884202741431	2206.926685865429	1041.046797904065	976.716966349537	2468.691898921236	153.6305406532466	941.1087747096271	2425.818826759758	152.4592727203774	968.7463654146663	2454.213710189279	229.5049569898363	917.1600926202128	2411.637706684412	233.186520241926	948.2912738568343	2418.198538842037	666.9558707214491	863.3087446083798	2360.571140229703	641.2511535869911	895.5306443733205	2365.335360992973	762.9679441549227	850.5578475059152	2310.122413646746	738.8734219576046	882.1226759264488	2391.013752481212	993.4251609140014	1132.330549605842	1765.999524458858	347.1953346986574	1082.826647675145	1749.412982417472	545.7532514654933	1052.771340037865	1759.842753056114	518.2086420653401	1099.705559999316	1792.800985742368	526.2429707984319	1056.182227402034	2338.095015997448	1085.147156783793	1173.947339080669	1713.203574669388	323.4604644981277	1035.14766542232	1710.635015714538	362.8525548392211	1143.818262437317	2213.20266981674	1041.515281466827	1087.117538690015	1873.717915638652	467.7169411744339	1122.785281692908	1870.002217633171	511.7763442756035	1088.820050290647	1951.588733080427	486.5602015538502	1136.287238809665	1946.884298500356	528.8031983099453	1103.345992608505	2229.84076216765	597.8130838081263	1158.36446819353	2183.299040861427	607.3665752291743	1101.967851504226	2229.293951361351	706.1641269506615	1173.518439352052	2185.637936990598	715.3759874106875	1120.097683951205	
3	0.01333333333333333	2382.056691295809	1004.544770333928	920.2235353176793	2377.914551539803	25.51721272437261	1011.736942263275	2401.608104132009	46.45478010524203	970.7765465554678	2387.841549194097	71.15338134812953	1014.38337055633	2300.822183622965	1075.510974317381	872.4718648031862	2604.900775659186	45.21141896479087	1030.171117335117	2561.562653616181	35.75398685949101	919.4170150078019	2204.094240968134	1034.774839198173	978.1232905676685	2455.246083853199	152.5876093934842	942.8799930194956	2412.221001424057	154.0218384905608	969.9990435892259	2445.13074072329	228.6647279634536	918.0837918028874	2402.605495626553	235.0576791278247	948.7575445462189	2417.29517635901	663.5729294366178	861.2364374736466	2360.391629019584	637.2376223684035	894.1554718229537	2363.330027490863	759.0705647795583	849.4246957027228	2308.778555567033	734.4251231095419	881.5773439145171	2389.464169923894	986.9133692207939	1132.09250154743	1776.964072831027	354.3197187904651	1084.692950980259	1764.615855310948	552.8441718542937	1054.556797814531	1775.05859576675	525.1025448407563	1101.242705969441	1807.43396611136	532.1853358368031	1057.106631420203	2337.317684412421	1077.122334041272	1175.636411679047	1722.95846637882	331.3870514846766	1038.165005828111	1722.961234203713	371.0705777494674	1146.43002093803	2210.928973088129	1034.550469680559	1088.602961851321	1887.261408214928	470.9057876022976	1123.809126964596	1884.975207562873	515.3002669041155	1090.265366365608	1965.604014401451	487.1728593396108	1137.532851117976	1962.340024973068	529.6171347068303	1104.671441488817	2238.672050949958	589.7722624851433	1158.715775101268	2191.500307189007	597.8491299416296	1102.565497414696	2234.694803738249	698.0931085736242	1173.920957573079	2190.562441829418	705.9526251639827	1120.633761234554	
4	0.02	2379.043527600989	998.8040358558889	920.6706981075458	2356.220206108985	27.00590872398552	1012.337783287994	2380.394871543401	48.29865245660817	971.801157737561	2367.445812261891	72.54102003400831	1015.90015123858	2298.563933235247	1068.395371025441	872.735579815887	2584.231791656323	41.8625619837479	1031.896491980695	2540.307081636768	35.99638765464105	919.7842476036036	2201.259242361054	1028.796421575105	979.5616170478297	2441.032544014623	151.6227957531006	944.4025765823308	2397.902882921372	155.5786537806806	971.013363241807	2435.15761338158	227.8333006933025	918.8191171249126	2392.72430580924	236.824066834245	949.0483576548165	2415.830234071445	660.0956540970861	859.3134102170179	2359.638266964835	633.2843613629501	892.9939132875688	2360.981623989172	755.1874000514637	848.351639901887	2307.078000145537	730.1309940111846	881.1519716485892	2387.82524817686	980.5776470837935	1131.838796607335	1788.665691152423	360.6260419079071	1086.449297686342	1779.880645871341	559.1364238492547	1056.359982157951	1790.453213055973	531.199587220387	1102.800901364325	1822.21733107759	537.473231035414	1058.054818569163	2336.200407873588	1069.385118925479	1177.229240380685	1733.524533417681	338.387148568972	1041.06278590247	1736.0332812631	378.2643163330898	1148.94727642887	2208.66453494932	1027.952728895679	1089.990659196448	1901.169235406071	473.6455651391147	1124.813874629194	1900.201952448183	518.3482534759955	1091.669937040917	1979.934613223306	487.523940139973	1138.741080034061	1978.001635717912	530.1540170757877	1105.959819575132	2247.866743663568	582.1743048800254	1159.176251712809	2200.032647739578	588.6898850846895	1103.357131414167	2240.386273260924	690.3784926284492	1174.435902105718	2195.73197905067	696.7979766084824	1121.37521927017	
